<svg width="109" height="24" viewBox="0 0 109 24" xmlns="http://www.w3.org/2000/svg"><mask id="satori_om-id"><rect x="0" y="0" width="106" height="24"/></mask><rect x="0" y="0" width="106" height="24" fill="transparent"/><mask id="satori_om-id-0"><rect x="0" y="2" width="20" height="20" fill="#fff"/></mask><rect x="0" y="2" width="20" height="20" fill="black"/><mask id="satori_om-id-1"><rect x="24" y="0" width="82" height="24" fill="#fff"/></mask><path fill="black" d="M34.3 18.7L25.2 18.7L25.2 16.9L30.5 10.3L30.5 10.2L25.3 10.2L25.3 7.8L34.1 7.8L34.1 9.8L29.1 16.2L29.1 16.3L34.3 16.3L34.3 18.7ZM39.3 18.7L36.3 18.7L36.3 7.8L39.3 7.8L39.3 18.7ZM37.8 6.4L37.8 6.4Q37.2 6.4 36.7 6.0Q36.2 5.5 36.2 4.9L36.2 4.9Q36.2 4.2 36.7 3.8Q37.2 3.3 37.8 3.3L37.8 3.3Q38.5 3.3 39.0 3.8Q39.5 4.2 39.5 4.9L39.5 4.9Q39.5 5.5 39.0 6.0Q38.5 6.4 37.8 6.4ZM44.5 12.4L44.5 12.4L44.5 18.7L41.4 18.7L41.4 4.2L44.4 4.2L44.4 9.7L44.5 9.7Q44.9 8.8 45.7 8.2Q46.5 7.7 47.8 7.7L47.8 7.7Q48.9 7.7 49.8 8.2Q50.6 8.7 51.1 9.6Q51.5 10.5 51.5 11.8L51.5 11.8L51.5 18.7L48.5 18.7L48.5 12.3Q48.5 11.3 48.0 10.7Q47.5 10.2 46.6 10.2L46.6 10.2Q46.0 10.2 45.5 10.4Q45.0 10.7 44.7 11.2Q44.5 11.7 44.5 12.4ZM58.5 18.9L58.5 18.9Q56.9 18.9 55.7 18.2Q54.5 17.5 53.8 16.3Q53.2 15.0 53.2 13.3L53.2 13.3Q53.2 11.6 53.8 10.4Q54.5 9.1 55.7 8.4Q56.9 7.7 58.5 7.7L58.5 7.7Q60.2 7.7 61.4 8.4Q62.6 9.1 63.3 10.4Q63.9 11.6 63.9 13.3L63.9 13.3Q63.9 15.0 63.3 16.3Q62.6 17.5 61.4 18.2Q60.2 18.9 58.5 18.9ZM58.6 16.6L58.6 16.6Q59.3 16.6 59.8 16.2Q60.3 15.7 60.6 15.0Q60.8 14.2 60.8 13.3L60.8 13.3Q60.8 12.3 60.6 11.6Q60.3 10.8 59.8 10.4Q59.3 10.0 58.6 10.0L58.6 10.0Q57.8 10.0 57.3 10.4Q56.8 10.8 56.5 11.6Q56.2 12.3 56.2 13.3L56.2 13.3Q56.2 14.2 56.5 15.0Q56.8 15.7 57.3 16.2Q57.8 16.6 58.6 16.6ZM67.3 18.9L67.3 18.9Q66.6 18.9 66.1 18.4Q65.6 17.9 65.6 17.2L65.6 17.2Q65.6 16.5 66.1 16.0Q66.6 15.5 67.3 15.5L67.3 15.5Q68.0 15.5 68.5 16.0Q69.0 16.5 69.0 17.2L69.0 17.2Q69.0 17.7 68.8 18.1Q68.6 18.4 68.2 18.7Q67.8 18.9 67.3 18.9ZM75.2 18.9L75.2 18.9Q74.0 18.9 73.0 18.3Q72.0 17.6 71.4 16.4Q70.8 15.1 70.8 13.3L70.8 13.3Q70.8 11.4 71.4 10.2Q72.0 8.9 73.0 8.3Q74.0 7.7 75.2 7.7L75.2 7.7Q76.1 7.7 76.7 8.0Q77.4 8.3 77.7 8.7Q78.1 9.2 78.3 9.6L78.3 9.6L78.4 9.6L78.4 4.2L81.4 4.2L81.4 18.7L78.4 18.7L78.4 17.0L78.3 17.0Q78.1 17.4 77.7 17.9Q77.3 18.3 76.7 18.6Q76.1 18.9 75.2 18.9ZM76.2 16.5L76.2 16.5Q76.9 16.5 77.4 16.1Q77.9 15.7 78.2 15.0Q78.5 14.2 78.5 13.3L78.5 13.3Q78.5 12.3 78.2 11.6Q77.9 10.9 77.4 10.5Q76.9 10.1 76.2 10.1L76.2 10.1Q75.4 10.1 74.9 10.5Q74.4 10.9 74.1 11.6Q73.9 12.3 73.9 13.3L73.9 13.3Q73.9 14.2 74.1 14.9Q74.4 15.7 74.9 16.1Q75.4 16.5 76.2 16.5ZM88.6 18.9L88.6 18.9Q86.9 18.9 85.7 18.2Q84.4 17.6 83.8 16.3Q83.1 15.0 83.1 13.3L83.1 13.3Q83.1 11.6 83.8 10.4Q84.4 9.1 85.6 8.4Q86.8 7.7 88.4 7.7L88.4 7.7Q89.5 7.7 90.4 8.0Q91.4 8.4 92.1 9.0Q92.8 9.7 93.2 10.8Q93.6 11.8 93.6 13.2L93.6 13.2L93.6 14.0L84.3 14.0L84.3 12.2L90.7 12.2Q90.7 11.5 90.4 11.0Q90.1 10.5 89.6 10.2Q89.1 9.9 88.5 9.9L88.5 9.9Q87.8 9.9 87.3 10.2Q86.7 10.6 86.4 11.1Q86.1 11.6 86.1 12.3L86.1 12.3L86.1 14.0Q86.1 14.9 86.4 15.4Q86.7 16.0 87.3 16.4Q87.8 16.7 88.6 16.7L88.6 16.7Q89.1 16.7 89.5 16.5Q89.9 16.4 90.2 16.1Q90.5 15.8 90.7 15.4L90.7 15.4L93.5 15.6Q93.3 16.6 92.6 17.4Q92.0 18.1 90.9 18.5Q89.9 18.9 88.6 18.9ZM101.9 7.8L105.1 7.8L101.3 18.7L97.9 18.7L94.0 7.8L97.2 7.8L99.5 15.6L99.6 15.6L101.9 7.8Z "/></svg>