<svg width="260" height="120" viewBox="0 0 260 120" xmlns="http://www.w3.org/2000/svg"><mask id="satori_om-id"><rect x="0" y="0" width="260" height="120" fill="#fff"/></mask><rect x="0" y="0" width="260" height="120" fill="#fff"/><mask id="satori_om-id-0"><rect x="35" y="38" width="190" height="44" fill="#fff"/></mask><mask id="satori_om-id-0-0"><rect x="35" y="45" width="30" height="30" fill="#fff"/></mask><rect x="35" y="45" width="30" height="30" fill="black"/><mask id="satori_om-id-0-1"><rect x="73" y="38" width="152" height="44" fill="#fff"/></mask><path fill="black" d="M91.6 71.7L75.1 71.7L75.1 68.4L84.7 56.5L84.7 56.4L75.4 56.4L75.4 52.1L91.2 52.1L91.2 55.6L82.2 67.2L82.2 67.3L91.6 67.3L91.6 71.7ZM101.2 71.7L95.8 71.7L95.8 52.1L101.2 52.1L101.2 71.7ZM98.5 49.5L98.5 49.5Q97.3 49.5 96.4 48.7Q95.6 47.9 95.6 46.8L95.6 46.8Q95.6 45.6 96.4 44.8Q97.3 44.0 98.5 44.0L98.5 44.0Q99.7 44.0 100.6 44.8Q101.4 45.6 101.4 46.8L101.4 46.8Q101.4 47.9 100.6 48.7Q99.7 49.5 98.5 49.5ZM111.0 60.3L111.0 60.3L111.0 71.7L105.5 71.7L105.5 45.5L110.8 45.5L110.8 55.5L111.1 55.5Q111.7 53.8 113.2 52.8Q114.7 51.8 116.9 51.8L116.9 51.8Q119.0 51.8 120.5 52.7Q122.0 53.6 122.9 55.2Q123.7 56.9 123.7 59.2L123.7 59.2L123.7 71.7L118.3 71.7L118.3 60.2Q118.3 58.3 117.4 57.3Q116.4 56.3 114.8 56.3L114.8 56.3Q113.7 56.3 112.8 56.8Q112.0 57.3 111.5 58.2Q111.0 59.1 111.0 60.3ZM136.9 72.1L136.9 72.1Q133.9 72.1 131.7 70.8Q129.6 69.5 128.4 67.3Q127.2 65.0 127.2 62.0L127.2 62.0Q127.2 58.9 128.4 56.6Q129.6 54.3 131.7 53.1Q133.9 51.8 136.9 51.8L136.9 51.8Q139.9 51.8 142.0 53.1Q144.2 54.3 145.4 56.6Q146.6 58.9 146.6 62.0L146.6 62.0Q146.6 65.0 145.4 67.3Q144.2 69.5 142.0 70.8Q139.9 72.1 136.9 72.1ZM136.9 67.9L136.9 67.9Q138.3 67.9 139.2 67.1Q140.1 66.3 140.6 65.0Q141.0 63.6 141.0 61.9L141.0 61.9Q141.0 60.2 140.6 58.9Q140.1 57.5 139.2 56.7Q138.3 56.0 136.9 56.0L136.9 56.0Q135.6 56.0 134.6 56.7Q133.7 57.5 133.2 58.9Q132.8 60.2 132.8 61.9L132.8 61.9Q132.8 63.6 133.2 65.0Q133.7 66.3 134.6 67.1Q135.6 67.9 136.9 67.9ZM153.3 72.0L153.3 72.0Q152.0 72.0 151.1 71.1Q150.2 70.2 150.2 69.0L150.2 69.0Q150.2 67.7 151.1 66.8Q152.0 65.9 153.3 65.9L153.3 65.9Q154.5 65.9 155.4 66.8Q156.4 67.7 156.4 69.0L156.4 69.0Q156.4 69.8 155.9 70.5Q155.5 71.2 154.8 71.6Q154.1 72.0 153.3 72.0ZM168.1 72.0L168.1 72.0Q165.8 72.0 164.0 70.9Q162.2 69.7 161.2 67.4Q160.1 65.2 160.1 61.9L160.1 61.9Q160.1 58.5 161.2 56.3Q162.3 54.0 164.1 52.9Q165.9 51.8 168.0 51.8L168.0 51.8Q169.7 51.8 170.8 52.4Q171.9 52.9 172.6 53.7Q173.3 54.6 173.6 55.4L173.6 55.4L173.8 55.4L173.8 45.5L179.2 45.5L179.2 71.7L173.9 71.7L173.9 68.6L173.6 68.6Q173.3 69.4 172.6 70.2Q171.9 71.0 170.8 71.5Q169.6 72.0 168.1 72.0ZM169.8 67.7L169.8 67.7Q171.1 67.7 172.0 67.0Q172.9 66.2 173.4 64.9Q173.9 63.6 173.9 61.9L173.9 61.9Q173.9 60.1 173.4 58.8Q172.9 57.5 172.0 56.8Q171.1 56.1 169.8 56.1L169.8 56.1Q168.4 56.1 167.5 56.9Q166.6 57.6 166.1 58.9Q165.7 60.2 165.7 61.9L165.7 61.9Q165.7 63.6 166.1 64.9Q166.6 66.2 167.5 66.9Q168.4 67.7 169.8 67.7ZM192.6 72.1L192.6 72.1Q189.6 72.1 187.4 70.8Q185.3 69.6 184.1 67.3Q182.9 65.1 182.9 62.0L182.9 62.0Q182.9 58.9 184.1 56.6Q185.3 54.4 187.4 53.1Q189.5 51.8 192.4 51.8L192.4 51.8Q194.4 51.8 196.1 52.4Q197.7 53.0 199.0 54.3Q200.3 55.5 201.0 57.4Q201.7 59.3 201.7 61.8L201.7 61.8L201.7 63.3L185.1 63.3L185.1 59.9L196.5 59.9Q196.5 58.7 196.0 57.8Q195.5 56.9 194.6 56.4Q193.7 55.9 192.5 55.9L192.5 55.9Q191.3 55.9 190.3 56.4Q189.4 57.0 188.8 58.0Q188.3 58.9 188.3 60.1L188.3 60.1L188.3 63.3Q188.3 64.7 188.8 65.8Q189.4 66.9 190.4 67.4Q191.4 68.0 192.7 68.0L192.7 68.0Q193.6 68.0 194.4 67.8Q195.2 67.5 195.7 67.0Q196.2 66.5 196.5 65.7L196.5 65.7L201.5 66.1Q201.2 67.9 200.0 69.2Q198.8 70.6 196.9 71.3Q195.1 72.1 192.6 72.1ZM217.2 52.1L223.0 52.1L216.1 71.7L210.0 71.7L203.1 52.1L208.9 52.1L212.9 66.1L213.1 66.1L217.2 52.1Z "/></svg>